<svg id="Layer_1" data-name="Layer 1" xmlns="http://www.w3.org/2000/svg" viewBox="0 0 410.97 410.97"><defs><style>.cls-1{fill:#d30202;stroke:#d30202;}.cls-1,.cls-2{stroke-miterlimit:10;stroke-width:4px;}.cls-2{fill:#424242;stroke:#424242;}</style></defs><title>ScoutDocs-logo-only</title><path id="_Compound_Path_" data-name="&lt;Compound Path&gt;" class="cls-1" d="M412.53,741.14A175.61,175.61,0,1,1,536.7,689.71,174.45,174.45,0,0,1,412.53,741.14Zm0-333c-86.8,0-157.41,70.62-157.41,157.42S325.73,723,412.53,723,570,652.34,570,565.54,499.33,408.12,412.53,408.12Z" transform="translate(-207.05 -360.06)"/><path id="_Path_" data-name="&lt;Path&gt;" class="cls-2" d="M393.57,379.3V362.25A204,204,0,0,0,209.24,546.58H226.3C235.2,458.47,305.46,388.21,393.57,379.3Z" transform="translate(-207.05 -360.06)"/><path id="_Path_2" data-name="&lt;Path&gt;" class="cls-2" d="M431.49,751.77v17.06A204,204,0,0,0,615.82,584.5H598.77C589.87,672.61,519.6,742.87,431.49,751.77Z" transform="translate(-207.05 -360.06)"/><path id="_Path_3" data-name="&lt;Path&gt;" class="cls-2" d="M226.3,584.5H209.24A204,204,0,0,0,393.57,768.83V751.77C305.46,742.87,235.2,672.61,226.3,584.5Z" transform="translate(-207.05 -360.06)"/><path id="_Path_4" data-name="&lt;Path&gt;" class="cls-2" d="M598.77,546.58h17.05A204,204,0,0,0,431.49,362.25V379.3C519.6,388.21,589.87,458.47,598.77,546.58Z" transform="translate(-207.05 -360.06)"/><g id="_Group_" data-name="&lt;Group&gt;"><path id="_Compound_Path_2" data-name="&lt;Compound Path&gt;" class="cls-2" d="M472.1,548.32c0,26.61,0,53.22,0,79.83,0,7.06-2.58,12.54-9,15.65a17.58,17.58,0,0,1-7.35,1.66q-64.12.15-128.23.06c-10,0-16.7-6.75-16.7-16.8q0-80.46,0-160.91c0-10.07,6.73-16.69,17-16.73,15.44,0,30.89,0,46.33,0q40.42,0,80.86,0c7.16,0,12.67,2.81,15.59,9.41A21.33,21.33,0,0,1,472,468.9C472.14,495.37,472.1,521.85,472.1,548.32Zm-146.93,0V628c0,2.81.42,3.22,3.23,3.22H454.17c3.3,0,3.58-.27,3.58-3.47V468.83c0-3.12-.28-3.4-3.43-3.4H328.54c-3.07,0-3.37.29-3.37,3.45Z" transform="translate(-207.05 -360.06)"/><path id="_Path_5" data-name="&lt;Path&gt;" class="cls-2" d="M435.07,557.77v14.15H347.94V557.77Z" transform="translate(-207.05 -360.06)"/><path id="_Path_6" data-name="&lt;Path&gt;" class="cls-2" d="M435.06,522.65v14.14H348V522.65Z" transform="translate(-207.05 -360.06)"/><path id="_Path_7" data-name="&lt;Path&gt;" class="cls-2" d="M347.9,501.68V487.56H435v14.12Z" transform="translate(-207.05 -360.06)"/><path id="_Path_8" data-name="&lt;Path&gt;" class="cls-2" d="M410.34,592.9v14.15H348V592.9Z" transform="translate(-207.05 -360.06)"/><path id="_Path_9" data-name="&lt;Path&gt;" class="cls-2" d="M515.46,489.74c-3.57-.69-7.22-1-10.84-1.44-6.13-.75-12.25-1.45-18.49-2.19v14.44c1,.13,1.84.27,2.73.38,7.51.9,15,1.84,22.55,2.68,2,.23,2.53,1.16,2.25,3.06-.58,3.94-1.06,7.91-1.53,11.87-1.42,12-2.79,24.07-4.23,36.1s-3,24.18-4.45,36.27-2.81,24.21-4.24,36.3q-2.23,18.87-4.52,37.72c-.38,3.15-.74,3.46-3.94,3.08-.28,0-.55-.09-.82-.12l-29.72-3.55c-8.61-1.05-17.2-2.24-25.83-3.13-7.31-.76-14.66-1.57-22-1.66-19.71-.22-39.43-.08-59.15-.08h-2.4c.62.89.95,1.45,1.37,1.95a16.09,16.09,0,0,0,11,5.81c9.71,1.13,19.42,2.24,29.13,3.41,15.51,1.86,31,3.79,46.52,5.66q25.74,3.11,51.47,6.19c6.73.82,13.18-2,16.24-7.88a25.21,25.21,0,0,0,2.3-8.24c.39-3,.78-6,1.15-8.92h0v0c1.13-9,2.18-17.95,3.26-26.93,0-.11,0-.25,0-.4l1-8,.13-.56h-.07l1-8.6h0c.35-3,.71-6,1.06-9l3.4-28.36q1.49-12.3,3-24.62c1.73-14.42,3.37-28.85,5.21-43.26A16,16,0,0,0,515.46,489.74Z" transform="translate(-207.05 -360.06)"/></g></svg>