<svg id="Layer_1" data-name="Layer 1" xmlns="http://www.w3.org/2000/svg" viewBox="0 0 378.21 378.21"><defs><style>.cls-1{fill:#fff;}</style></defs><title>ScoutDocs Menu Icon</title><g id="_Group_" data-name="&lt;Group&gt;"><path class="cls-1" d="M413.35,760.46A182.63,182.63,0,1,1,542.47,707,181.4,181.4,0,0,1,413.35,760.46Zm0-346.3c-90.26,0-163.7,73.43-163.7,163.69s73.44,163.69,163.7,163.69S577,668.11,577,577.85,503.61,414.16,413.35,414.16Z" transform="translate(-224.24 -388.74)"/><path class="cls-1" d="M413.35,767a189.11,189.11,0,1,1,133.72-55.39A187.87,187.87,0,0,1,413.35,767Zm0-365.22a176.11,176.11,0,1,0,124.53,51.58A175,175,0,0,0,413.35,401.74Zm0,346.3c-93.85,0-170.2-76.34-170.2-170.19s76.35-170.19,170.2-170.19S583.54,484,583.54,577.85,507.19,748,413.35,748Zm0-327.38c-86.68,0-157.2,70.51-157.2,157.19S326.67,735,413.35,735s157.19-70.51,157.19-157.19S500,420.66,413.35,420.66Z" transform="translate(-224.24 -388.74)"/></g><g id="Documents"><g id="_Group_2" data-name="&lt;Group&gt;"><path class="cls-1" d="M470.17,563.84c0,26.61,0,53.22,0,79.83,0,7.06-2.57,12.54-9,15.66a17.42,17.42,0,0,1-7.35,1.65q-64.11.15-128.23.07c-10,0-16.69-6.76-16.7-16.81q0-80.44,0-160.9c0-10.07,6.73-16.7,17-16.73,15.45-.05,30.89,0,46.33,0q40.44,0,80.87,0c7.16,0,12.66,2.81,15.59,9.41a21.53,21.53,0,0,1,1.45,8.42C470.22,510.9,470.17,537.37,470.17,563.84Zm-146.93,0q0,39.82,0,79.65c0,2.8.42,3.21,3.22,3.21H452.25c3.3,0,3.57-.27,3.57-3.48V484.35c0-3.11-.28-3.39-3.43-3.39H326.62c-3.08,0-3.38.3-3.38,3.46Z" transform="translate(-224.24 -388.74)"/><path class="cls-1" d="M373.5,665.07l-47.89,0c-12.18,0-20.69-8.57-20.7-20.81,0-49.08,0-101.71,0-160.9,0-12.36,8.42-20.69,20.95-20.73q16.39,0,32.78,0l36,0q29.22,0,58.46,0h.05c9.14,0,15.78,4.08,19.21,11.79a24.77,24.77,0,0,1,1.79,10c.08,20.53.08,41.4.07,61.58v39.63c0,19,0,38.7,0,58,0,11.4-6.11,16.77-11.27,19.27a21.48,21.48,0,0,1-9.08,2.05C428.5,665,402.27,665.07,373.5,665.07ZM344.11,470.59q-9.12,0-18.22,0c-8,0-13,4.9-13,12.73,0,59.19,0,111.82,0,160.9,0,7.89,4.87,12.8,12.71,12.81,48.76.05,89.5,0,128.21-.07a13.59,13.59,0,0,0,5.62-1.25c4.62-2.24,6.77-6.07,6.75-12.05-.05-19.36,0-39,0-58.07V546c0-20.18,0-41-.07-61.55a17.38,17.38,0,0,0-1.11-6.82c-2.13-4.79-5.91-7-11.89-7h0q-29.24,0-58.48,0l-36,0ZM417.6,650.71H326.47c-5,0-7.22-2.22-7.22-7.21V484.41c0-5.37,2.07-7.46,7.38-7.46H452.39c5.35,0,7.43,2.07,7.43,7.39V643.23c0,5.45-2.05,7.48-7.57,7.48Zm-90.35-8H451.82V485H327.24Z" transform="translate(-224.24 -388.74)"/></g><g id="_Group_3" data-name="&lt;Group&gt;"><path class="cls-1" d="M433.14,573.29v14.16H346V573.29Z" transform="translate(-224.24 -388.74)"/><path class="cls-1" d="M437.14,591.45H342V569.29h95.12Zm-87.12-8h79.12v-6.16H350Z" transform="translate(-224.24 -388.74)"/></g><g id="_Group_4" data-name="&lt;Group&gt;"><path class="cls-1" d="M433.13,538.18v14.14H346V538.18Z" transform="translate(-224.24 -388.74)"/><path class="cls-1" d="M437.13,556.32H342V534.18h95.11Zm-87.11-8h79.11v-6.14H350Z" transform="translate(-224.24 -388.74)"/></g><g id="_Group_5" data-name="&lt;Group&gt;"><path class="cls-1" d="M346,517.21V503.08h87.11v14.13Z" transform="translate(-224.24 -388.74)"/><path class="cls-1" d="M437.08,521.21H342V499.08h95.11Zm-87.11-8h79.11v-6.13H350Z" transform="translate(-224.24 -388.74)"/></g><g id="_Group_6" data-name="&lt;Group&gt;"><path class="cls-1" d="M408.41,608.42v14.15H346V608.42Z" transform="translate(-224.24 -388.74)"/><path class="cls-1" d="M412.41,626.57H342V604.42h70.37Zm-62.37-8h54.37v-6.15H350Z" transform="translate(-224.24 -388.74)"/></g><g id="_Group_7" data-name="&lt;Group&gt;"><path class="cls-1" d="M515.08,619.44l3.4-28.35q1.5-12.32,3-24.63c1.73-14.42,3.37-28.85,5.2-43.25a16,16,0,0,0-12.57-17.94c-3.58-.7-7.22-1-10.84-1.45-6.13-.74-12.26-1.45-18.5-2.19v14.45c1,.13,1.85.27,2.74.37,7.51.91,15,1.84,22.54,2.69,2,.22,2.54,1.16,2.26,3.05-.59,3.95-1.06,7.91-1.53,11.88-1.42,12-2.79,24.06-4.23,36.09s-3,24.18-4.45,36.28-2.81,24.2-4.25,36.3q-2.23,18.85-4.52,37.72c-.37,3.14-.73,3.45-3.94,3.08-.27,0-.54-.09-.81-.13q-14.86-1.77-29.73-3.55c-8.6-1-17.2-2.24-25.82-3.13-7.32-.75-14.66-1.57-22-1.65-19.72-.23-39.44-.08-59.15-.08h-2.4c.61.88.95,1.45,1.36,2a16.1,16.1,0,0,0,11,5.8c9.71,1.14,19.42,2.24,29.12,3.41,15.51,1.87,31,3.79,46.53,5.67q25.73,3.1,51.46,6.18c6.74.82,13.19-2,16.25-7.88a24.88,24.88,0,0,0,2.29-8.24c.4-3,.78-5.94,1.16-8.92h0c1.13-9,2.18-18,3.25-26.93,0-.12,0-.26,0-.4l.95-8" transform="translate(-224.24 -388.74)"/><path class="cls-1" d="M513,637.07l1-8.6" transform="translate(-224.24 -388.74)"/><path class="cls-1" d="M515.94,645.92a5.2,5.2,0,0,1-.05.59l-.74,6.25c-.81,6.78-1.64,13.8-2.51,20.7-.38,3-2.56,16-3.88,18.53a19.46,19.46,0,0,1-17.54,10.16,21.06,21.06,0,0,1-2.73-.17q-14.1-1.71-28.21-3.39L437,695.8l-21.47-2.62-25.06-3c-6.84-.82-13.68-1.61-20.53-2.41l-8.57-1a20.11,20.11,0,0,1-13.66-7.24c-.39-.48-.7-1-1-1.44l-.52-.77L341.81,671h10.06l16.85,0c13.87,0,28.22-.06,42.34.1,7,.08,14,.81,20.8,1.51l1.57.16c5.76.6,11.59,1.34,17.21,2,2.9.37,5.79.74,8.68,1.09l19.92,2.38,9.8,1.17.37.06,1.92-16q1.28-10.62,2.54-21.23,1-8,1.88-16.08,1.17-10.11,2.37-20.23,1.1-9.16,2.25-18.34,1.11-9,2.19-17.94,1.26-10.48,2.47-21c.59-5,1.17-10.06,1.77-15.09.42-3.62.85-7.15,1.35-10.65-5.23-.6-10.5-1.24-15.62-1.86l-5.51-.67c-.63-.07-1.25-.16-1.9-.25l-4.36-.61V497.13l10,1.18,13,1.54,2.72.32c2.74.31,5.58.62,8.4,1.17h0a20.09,20.09,0,0,1,15.78,22.37c-1.22,9.6-4.62,38.43-5.2,43.23q-1.29,10.74-2.6,21.47M511.11,619l3.79-31.53q1.3-10.73,2.59-21.45.87-7.2,1.71-14.39c1.12-9.47,2.28-19.27,3.5-28.9a11.9,11.9,0,0,0-9.37-13.5h0c-2.51-.49-5.06-.78-7.77-1.08l-2.79-.33-13-1.54-1.05-.12v6.45l4.73.57c5.58.68,11.34,1.38,17,2a6.55,6.55,0,0,1,4.66,2.38,6.82,6.82,0,0,1,1.11,5.24c-.57,3.83-1,7.59-1.52,11.75q-.88,7.54-1.76,15.09c-.82,7-1.63,14-2.47,21q-1.08,9-2.2,18-1.14,9.15-2.25,18.31-1.2,10.1-2.36,20.19-.94,8.05-1.88,16.1-1.26,10.62-2.55,21.25-1,8.24-2,16.47c-.64,5.36-3,7.2-8.38,6.58q-.32,0-.63-.09a1.2,1.2,0,0,0-.2,0l-9.8-1.17-19.93-2.39c-2.91-.35-5.82-.72-8.72-1.09-5.59-.71-11.36-1.44-17-2l-1.58-.16c-6.6-.69-13.43-1.39-20.06-1.47-14.07-.16-28.39-.14-42.23-.1h-4.67l6.82.8q10.29,1.19,20.57,2.41l25.08,3L438,687.85l23.24,2.8L489.46,694c5.33.65,10-1.56,12.22-5.77a20.9,20.9,0,0,0,1.87-6.9c.39-3,.77-5.93,1.15-8.9.86-6.88,1.7-13.88,2.5-20.65l3.28-27.61Z" transform="translate(-224.24 -388.74)"/></g></g></svg>